<svg id="vector"
     xmlns="http://www.w3.org/2000/svg"
     width="23"
     height="22"
     viewBox="0 0 23 22">
    <path fill="#f1f1f1"
          d="M18.0386,12.178C17.8604,12.0191 17.6187,11.9293 17.3663,11.9281C17.1139,11.9269 16.8711,12.0144 16.6909,12.1715L12.2312,16.1233V1.065C12.2312,0.8406 12.1309,0.6253 11.9524,0.4666C11.7739,0.3079 11.5317,0.2188 11.2793,0.2188C11.0268,0.2188 10.7847,0.3079 10.6061,0.4666C10.4276,0.6253 10.3273,0.8406 10.3273,1.065V16.1233L5.8634,12.165C5.6824,12.0092 5.44,11.9227 5.1881,11.9239C4.9362,11.9251 4.6948,12.014 4.5157,12.1715C4.4282,12.2502 4.3589,12.3434 4.3119,12.4459C4.2649,12.5483 4.241,12.658 4.2417,12.7687C4.2424,12.8793 4.2676,12.9888 4.3158,13.0908C4.3641,13.1928 4.4345,13.2853 4.523,13.3632L10.6012,18.728C10.6893,18.8012 10.7908,18.8607 10.9012,18.9039C11.017,18.9479 11.1419,18.9699 11.2678,18.9687C11.5168,18.9689 11.756,18.8825 11.9344,18.728L18.0126,13.3632C18.1025,13.2872 18.1745,13.1961 18.2246,13.0952C18.2746,12.9944 18.3016,12.8856 18.304,12.7754C18.3064,12.6652 18.2842,12.5556 18.2387,12.453C18.1931,12.3505 18.1251,12.257 18.0386,12.178V12.178Z"
          id="path_0" />
    <path fill="#f1f1f1"
          d="M4.7105,19.9062L17.8354,19.9062A0.9375,0.9375 0,0 1,18.7729 20.8437L18.7729,20.8437A0.9375,0.9375 0,0 1,17.8354 21.7812L4.7105,21.7812A0.9375,0.9375 0,0 1,3.7729 20.8437L3.7729,20.8437A0.9375,0.9375 0,0 1,4.7105 19.9062z"
          id="path_1" />
</svg>